<?xml version="1.0" encoding="utf-8"?>
<!-- Generator: Adobe Illustrator 22.1.0, SVG Export Plug-In . SVG Version: 6.00 Build 0)  -->
<svg version="1.1" id="Layer_1" xmlns="http://www.w3.org/2000/svg" xmlns:xlink="http://www.w3.org/1999/xlink" x="0px" y="0px"
	 viewBox="0 0 300 300" style="enable-background:new 0 0 300 300;" xml:space="preserve">
<style type="text/css">
	.st0{fill:#FFFFFF;}
	.st1{fill:#7F7F7F;}
	.st2{fill:#FFFFFF;stroke:#7F7F7F;stroke-width:5;stroke-linecap:square;stroke-linejoin:round;stroke-miterlimit:10;}
</style>
<g>
	<circle class="st0" cx="150" cy="143" r="119.5"/>
	<path class="st1" d="M150,27c31,0,60.1,12.1,82,34c21.9,21.9,34,51,34,82c0,31-12.1,60.1-34,82s-51,34-82,34c-31,0-60.1-12.1-82-34
		c-21.9-21.9-34-51-34-82c0-31,12.1-60.1,34-82C89.9,39.1,119,27,150,27 M150,20C82.1,20,27,75.1,27,143s55.1,123,123,123
		s123-55.1,123-123S217.9,20,150,20L150,20z"/>
</g>
<polyline class="st2" points="217,81 149.5,148.5 157.5,96.5 "/>
</svg>
