<?xml version="1.0" encoding="utf-8"?>
<!-- Generator: Adobe Illustrator 22.1.0, SVG Export Plug-In . SVG Version: 6.00 Build 0)  -->
<svg version="1.1" id="Layer_1" xmlns="http://www.w3.org/2000/svg" xmlns:xlink="http://www.w3.org/1999/xlink" x="0px" y="0px"
	 viewBox="0 0 300 300" style="enable-background:new 0 0 300 300;" xml:space="preserve">
<style type="text/css">
	.st0{fill:#999999;}
</style>
<g>
	<path class="st0" d="M166.6,161.2l45.6,87.9l-16.2,8.4l-45.6-87.9L166.6,161.2 M167.9,157.1l-21.5,11.2l48.4,93.2l21.5-11.2
		L167.9,157.1L167.9,157.1z"/>
</g>
<g>
	<path class="st0" d="M150.6,146l7.7,14.9l-3.5,1.8l-7.7-14.9L150.6,146 M151.5,143.3l-7,3.7l9.6,18.4l7-3.7L151.5,143.3
		L151.5,143.3z"/>
</g>
<g>
	<path class="st0" d="M126.5,57.1c17.1,0,32.6,9.4,40.4,24.6c11.6,22.3,2.9,49.8-19.4,61.4c-6.5,3.4-13.7,5.1-21,5.1
		c-17.1,0-32.6-9.4-40.5-24.6c-11.6-22.3-2.9-49.8,19.4-61.4C112.1,58.9,119.1,57.1,126.5,57.1L126.5,57.1 M126.5,53.1
		c-7.7,0-15.5,1.8-22.8,5.6c-24.3,12.6-33.7,42.5-21.1,66.8c8.8,17,26.1,26.7,44,26.7c7.7,0,15.5-1.8,22.8-5.6
		c24.3-12.6,33.7-42.5,21.1-66.8C161.6,62.9,144.4,53.1,126.5,53.1L126.5,53.1z"/>
</g>
</svg>
