<?xml version="1.0" encoding="utf-8"?>
<!-- Generator: Adobe Illustrator 22.1.0, SVG Export Plug-In . SVG Version: 6.00 Build 0)  -->
<svg version="1.1" id="Layer_1" xmlns="http://www.w3.org/2000/svg" xmlns:xlink="http://www.w3.org/1999/xlink" x="0px" y="0px"
	 viewBox="0 0 300 300" style="enable-background:new 0 0 300 300;" xml:space="preserve">
<style type="text/css">
	.st0{fill:none;stroke:#999999;stroke-width:3;stroke-miterlimit:10;}
	.st1{fill:none;stroke:#999999;stroke-width:4;stroke-miterlimit:10;}
	.st2{fill:#999999;}
	.st3{fill:#FFFFFF;stroke:#999999;stroke-width:3;stroke-linecap:round;stroke-miterlimit:10;}
	.st4{fill:#FFFFFF;stroke:#999999;stroke-width:2;stroke-linecap:round;stroke-miterlimit:10;}
	.st5{fill:#FFFFFF;stroke:#999999;stroke-width:2.5;stroke-linecap:round;stroke-miterlimit:10;}
	.st6{fill:none;stroke:#999999;stroke-miterlimit:10;}
	.st7{fill:none;stroke:#999999;stroke-width:2.5;stroke-linecap:round;stroke-miterlimit:10;}
	.st8{fill:#E6E6E6;}
	.st9{fill:none;stroke:#999999;stroke-width:2;stroke-miterlimit:10;}
</style>
<path class="st0" d="M222.9,169.4c0,0-60,1.2-58.8-31.9v38c0,0-1.2,14.7,58.8,14.7V169.4z"/>
<path class="st1" d="M119.9,136.6c-44.1,0-44.1,0-44.1,0v111.5H164V136.6H119.9z"/>
<g>
	<path class="st2" d="M119.9,46c19.4,0,35.2,15.8,35.2,35.2s-15.8,35.2-35.2,35.2s-35.2-15.8-35.2-35.2S100.5,46,119.9,46 M119.9,42
		c-21.7,0-39.2,17.6-39.2,39.2s17.6,39.2,39.2,39.2s39.2-17.6,39.2-39.2S141.6,42,119.9,42L119.9,42z"/>
</g>
<path class="st2" d="M119.9,137.6"/>
<path class="st1" d="M17,169.4c0,0,60,1.2,58.8-31.9v38c0,0,1.2,14.7-58.8,14.7V169.4z"/>
<path class="st3" d="M251.4,169.2c0,0,25.4,78,19.3,79.3c-11.2,2.5-83.1,0-83.1,0s-11.2,3.7,10.5-81.7"/>
<path class="st4" d="M208.8,206.1l1.1,40.4c0.1,3.2-2.7,7.1-7.3,4.6h-1.2c-4.1,3.7-7.3-1.2-7.1-4.1l3.4-49.2"/>
<path class="st4" d="M243.7,206.1l-1.1,40.4c-0.1,3.2,2.7,7.1,7.3,4.6h1.2c4.1,3.7,7.3-1.2,7.1-4.1l-3.4-49.2"/>
<path class="st5" d="M254,141.3c0,0,1.2-16.1-3.7-27.3c0,0,8.1,24.6,8.7,28.5c1.2,8.7,9.3,21.9,21.1,12.4c6.2-5,6.2-12.4-1.2-17.4
	c0,0-8.7-3.7-11.2-26c-2.8-25.4-20.5-10.5-20.5-10.5s-19.8-8.7-39.7,0c0,0-31-16.1-28.5,36c0,0-16.1,37.2,12.4,27.3
	c0,0-16.1-12.4,13-30.4"/>
<path class="st6" d="M210,167.2c0,0,13.3,8,27.7,1.2"/>
<path class="st4" d="M220.8,161.5c0,0-8.3,25,2.9,25c11.2,0,5.2-25,5.2-25"/>
<path class="st7" d="M191.4,164.2c0,0,2.5,2.5,13.6,3.7c9.4,1,18-5.6,19.2-13c0,0,8.7,17.4,23.6,14.9c14.9-2.5,7.4-32.2,0-36"/>
<g>
	<path class="st2" d="M184.5,142.4c2-1.9,3.9-4.1,5.4-6.4c1.5-2.3,2.7-4.9,2.7-7.5c0-3,0.9-5.8,2.1-8.4c0.6-1.3,1.3-2.6,2.2-3.8
		c0.9-1.2,1.7-2.4,3.3-3.4l2.9-1.8l-1.3,3.3c-0.7,1.7-1.3,3.6-1.8,5.5c-0.5,1.9-0.9,3.8-1.2,5.7c-0.2,1-0.3,1.9-0.4,2.9
		c-0.1,1-0.2,2-0.2,2.9c-0.1,2,0,3.9,0,6l0,0c0,0.1-0.1,0.1-0.1,0.1c-0.1,0-0.1,0-0.1-0.1c-0.6-1.9-1.2-3.9-1.4-6
		c-0.2-2-0.3-4.1-0.1-6.2c0.2-2.1,0.5-4.1,1-6.1c0.6-2,1.2-3.9,2.2-5.8l1.6,1.5c-0.4,0.2-0.9,0.6-1.4,1c-0.5,0.5-0.9,1-1.3,1.5
		c-0.8,1.1-1.6,2.2-2.2,3.4c-1.2,2.4-2.3,5-2.4,7.7c-0.1,0.7-0.1,1.5-0.3,2.2c-0.1,0.4-0.2,0.7-0.3,1.1c-0.1,0.3-0.3,0.7-0.4,1
		c-0.6,1.3-1.4,2.5-2.3,3.7c-1.7,2.3-3.8,4.3-5.9,6.1c-0.1,0-0.1,0-0.2,0C184.4,142.5,184.4,142.5,184.5,142.4L184.5,142.4z"/>
</g>
<path class="st2" d="M224.3,157.4c0,0,1.3,3.1,0.4,22.9c0,0,1.9-6.6,1.4-22.5"/>
<ellipse transform="matrix(5.327610e-02 -0.9986 0.9986 5.327610e-02 43.0538 351.4887)" class="st2" cx="206.9" cy="153" rx="1.2" ry="1.9"/>
<ellipse transform="matrix(0.9937 -0.1121 0.1121 0.9937 -15.9077 23.1869)" class="st2" cx="198.2" cy="153" rx="1.9" ry="1.2"/>
<ellipse transform="matrix(0.1294 -0.9916 0.9916 0.1294 17.9062 338.8738)" class="st2" cx="201.9" cy="159.2" rx="1.2" ry="1.9"/>
<ellipse transform="matrix(0.9885 -0.1509 0.1509 0.9885 -21.6215 33.6133)" class="st2" cx="210.6" cy="159.2" rx="1.9" ry="1.2"/>
<ellipse class="st2" cx="215.6" cy="155.5" rx="1.9" ry="1.2"/>
<ellipse transform="matrix(0.9984 -5.723985e-02 5.723985e-02 0.9984 -8.4344 14.1349)" class="st2" cx="242.5" cy="154.3" rx="1.9" ry="1.2"/>
<ellipse transform="matrix(0.9753 -0.2211 0.2211 0.9753 -28.5362 55.5503)" class="st2" cx="233.9" cy="155.3" rx="1.9" ry="1.2"/>
<ellipse transform="matrix(1.918410e-02 -0.9998 0.9998 1.918410e-02 72.7255 396.1517)" class="st2" cx="238.3" cy="161" rx="1.2" ry="1.9"/>
<ellipse transform="matrix(0.9659 -0.2591 0.2591 0.9659 -33.0369 69.4367)" class="st2" cx="246.9" cy="160.1" rx="1.9" ry="1.2"/>
<ellipse transform="matrix(0.9939 -0.1103 0.1103 0.9939 -15.7798 28.4809)" class="st2" cx="249.4" cy="156.8" rx="1.9" ry="1.2"/>
<path class="st2" d="M221.2,153c0,0-5-3.7-6.7-8.1c-1.4-3.4-0.7-5.6,10.5-5.6h1.2c8.7,0,9.8,3.5,8,5.8l-6.7,7.9
	C226.1,154.3,223.6,155.5,221.2,153z"/>
<path class="st8" d="M216.3,143.9c0,0-1.3-0.7-0.7-1.5c0.8-1.1,2.6-2.2,5.6-1.7c3,0.5,3.1,3.2,2,3.9
	C219.9,146.8,216.3,143.9,216.3,143.9z"/>
<ellipse transform="matrix(0.9753 -0.2211 0.2211 0.9753 -21.1113 50.4809)" class="st9" cx="215" cy="119.6" rx="6.2" ry="9.9"/>
<ellipse transform="matrix(0.2211 -0.9753 0.9753 0.2211 71.3736 325.9867)" class="st9" cx="239.8" cy="118.3" rx="9.9" ry="6.2"/>
<circle class="st2" cx="216.2" cy="120.8" r="2.5"/>
<circle class="st2" cx="238.5" cy="120.8" r="2.5"/>
</svg>
